<svg width="300" height="602" viewBox="0 0 300 602" fill="none" xmlns="http://www.w3.org/2000/svg">
<path d="M254.082 0H45.9174C20.5579 0 7.62939e-05 23.7111 7.62939e-05 52.9601V549.04C7.62939e-05 578.289 20.5579 602 45.9174 602H254.082C279.442 602 300 578.289 300 549.04V52.9601C300 23.7111 279.442 0 254.082 0Z" fill="#00CDCD"/>
<path d="M15.6394 46.3603C15.6394 46.3603 16.7491 30.018 29.2332 22.5393C41.7173 15.0606 70.5695 16.9995 73.8986 18.3845C77.2277 19.7694 73.707 27.6736 81.1116 33.8958C86.8464 38.7149 90.8215 38.8816 95.2603 38.6047C102.473 38.6046 209.837 38.6047 209.837 38.6047C209.837 38.6047 216.218 38.0507 220.101 30.572C223.761 23.5262 220.934 21.1544 225.095 18.6614C229.256 16.1685 277.806 12.5677 279.748 38.8816C281.69 65.1956 283.354 61.8717 283.354 61.8717L280.383 12.2627L232.031 6.47394L30.6203 10.3518L12.5877 33.3419L15.6394 46.3603Z" fill="black"/>
<path d="M48.6121 3.91644C23.8326 3.91644 3.88394 27.2508 3.88394 56.236V546.318C3.88394 575.303 23.8326 598.638 48.6121 598.638H251.388C276.167 598.638 296.116 575.303 296.116 546.318V56.236C296.116 27.2508 276.167 3.91644 251.388 3.91644H48.6121ZM60.6361 16.0304H237.453C259.366 16.0304 277.007 29.211 277.007 45.5842V551.165C277.007 567.538 259.366 580.719 237.453 580.719H60.6361C38.7235 580.719 21.0821 567.538 21.0821 551.165V45.5842C21.0821 29.211 38.7235 16.0304 60.6361 16.0304V16.0304Z" fill="black"/>
<path d="M45.917 0.000305176C20.4789 0.000305951 0 23.6202 0 52.9601V549.039C0 578.379 20.4789 601.999 45.917 601.999H254.083C279.521 601.999 300 578.379 300 549.039V52.9601C300 23.6202 279.521 0.000305176 254.083 0.000305176H45.917ZM58.2607 12.2625H239.778C262.273 12.2625 280.383 25.6044 280.383 42.1779V553.946C280.383 570.519 262.273 583.861 239.778 583.861H58.2607C35.7656 583.861 17.6553 570.519 17.6553 553.946V42.1779C17.6553 25.6044 35.7656 12.2625 58.2607 12.2625V12.2625Z" fill="url(#paint0_linear_75_2)"/>
<path d="M181.162 27.9665C183.221 27.9665 184.89 26.3443 184.89 24.3431C184.89 22.3419 183.221 20.7197 181.162 20.7197C179.104 20.7197 177.435 22.3419 177.435 24.3431C177.435 26.3443 179.104 27.9665 181.162 27.9665Z" fill="black" stroke="#4E4E4E" stroke-width="0.6" stroke-linecap="round" stroke-linejoin="round"/>
<path d="M133.885 24.0493C134.601 24.441 164.686 24.0493 164.686 24.0493" stroke="#3A3A3A" stroke-width="1.665" stroke-linecap="round"/>
<ellipse cx="150" cy="157.369" rx="100" ry="99.917" fill="white"/>
<path d="M149.477 224.69L149.089 224.381L146.182 215.484L144.732 211.777L141.665 204.362L136.12 193.487L133.418 189.039L128.713 182.118L124.651 176.933L118.645 170.997L114.405 167.73L110.906 165.494L108.076 163.982L103.908 162.309L100.106 161.147L106.407 156.968L109.406 154.613L112.446 151.472L114.308 148.692L115.769 145.142L116.348 141.854L116.209 139.243L116.07 136.633L114.748 131.205L113.057 126.151L111.987 123.488L110.916 120.825L107.314 113.566L104.959 109.456L103.448 106.984L99.6722 101.053L93 91.2439L93.1912 91.0548L98.6595 95.1254L102.158 97.8052L109.656 104.003L116.904 110.403L122.152 115.138L130.415 123.297L133.431 126.51L138.669 132.688L141.162 136.149L142.091 137.55L143.02 138.951V139.31L140.396 136.87L136.343 133.831L130.022 129.604L126.65 127.93L122.812 126.415L121.919 126.249L121.027 126.084V126.372L122.316 129.228L123.791 133.183L124.159 135.254L124.526 137.325L124.524 141.339L123.776 145.898L122.323 149.516L119.807 153.839L117.69 156.415L114.969 159.208L115.25 159.657L119.653 162.3L123.651 165.368L127.427 168.772L132.321 174.057L135.038 177.423L138.726 182.613L142.177 188.05L145.123 193.24L147.032 196.701L147.861 198.307H151.963L155.334 192.252L159.844 184.837L162.321 181.13L165.366 176.928L169.921 171.491L174.885 166.508L179.134 163.18L184.882 159.386L185.015 159.331L181.834 156.075L178.716 151.572L176.719 147.358L176.082 144.843L175.446 142.327L175.426 136.643L176.086 134.171L176.745 131.7L179.008 126.303L178.778 126.075L176.384 126.656L172.833 128.1L169.137 130.15L166.388 131.917L159.89 136.572L157.016 139.346V138.901L160.754 133.396L167.357 125.521L179.884 113.21L185.594 108.22L192.63 102.1L200.695 95.6157L203.626 93.3675L207 91V91.2366L198.363 104.019L195.78 108.221L192.659 113.658L190.712 117.365L188.429 122.308L186.985 126.015L186.157 128.487L185.329 130.958L184.918 132.34L184.507 133.721L184.134 136.171L183.76 138.62L183.759 140.454L183.757 142.287L184.329 145.54L186.005 149.183L187.104 150.699L188.203 152.214L192.38 156.216L199.794 161.028L199.668 161.153L199.541 161.279L193.629 163.23L189.201 165.464L186.027 167.37L182.133 170.248L176.946 175.199L172.845 180.142L169.127 185.085L166.301 189.534L162.746 195.713L157.831 205.599L156.684 208.317L155.536 211.036L153.822 215.485L151.83 221.416L150.753 225H149.864L149.476 224.691L149.477 224.69ZM137.209 168.627L136.271 168.408L133.844 167.192L129.768 163.401L126.753 159.443L126.87 159.328L126.987 159.212L129.9 159.837L134.072 161.989L136.975 163.939L138.518 165.79L138.931 167.034L139.345 168.277L139.46 168.586L139.575 168.895L138.147 168.846L137.209 168.627ZM160.89 168.092L161.056 167.289L161.286 166.395L161.516 165.502L163.889 163.307L167.094 161.449L170.387 159.95L173.093 159.008L173.177 159.092L173.262 159.176L169.28 164.38L166.53 166.867L164.203 168.152L161.674 168.895H160.725L160.89 168.092Z" fill="#00CDCD"/>
<path d="M115.871 307.469H116.996V313.24C116.996 313.881 116.854 314.414 116.568 314.84C116.283 315.266 115.904 315.586 115.432 315.801C114.963 316.012 114.453 316.117 113.902 316.117C113.324 316.117 112.801 316.012 112.332 315.801C111.867 315.586 111.498 315.266 111.225 314.84C110.955 314.414 110.82 313.881 110.82 313.24V307.469H111.939V313.24C111.939 313.686 112.021 314.053 112.186 314.342C112.35 314.631 112.578 314.846 112.871 314.986C113.168 315.127 113.512 315.197 113.902 315.197C114.297 315.197 114.641 315.127 114.934 314.986C115.23 314.846 115.461 314.631 115.625 314.342C115.789 314.053 115.871 313.686 115.871 313.24V307.469ZM123.318 313.844C123.318 313.645 123.287 313.469 123.225 313.316C123.166 313.16 123.061 313.02 122.908 312.895C122.76 312.77 122.553 312.65 122.287 312.537C122.025 312.424 121.693 312.309 121.291 312.191C120.869 312.066 120.488 311.928 120.148 311.775C119.809 311.619 119.518 311.441 119.275 311.242C119.033 311.043 118.848 310.814 118.719 310.557C118.59 310.299 118.525 310.004 118.525 309.672C118.525 309.34 118.594 309.033 118.73 308.752C118.867 308.471 119.062 308.227 119.316 308.02C119.574 307.809 119.881 307.645 120.236 307.527C120.592 307.41 120.988 307.352 121.426 307.352C122.066 307.352 122.609 307.475 123.055 307.721C123.504 307.963 123.846 308.281 124.08 308.676C124.314 309.066 124.432 309.484 124.432 309.93H123.307C123.307 309.609 123.238 309.326 123.102 309.08C122.965 308.83 122.758 308.635 122.48 308.494C122.203 308.35 121.852 308.277 121.426 308.277C121.023 308.277 120.691 308.338 120.43 308.459C120.168 308.58 119.973 308.744 119.844 308.951C119.719 309.158 119.656 309.395 119.656 309.66C119.656 309.84 119.693 310.004 119.768 310.152C119.846 310.297 119.965 310.432 120.125 310.557C120.289 310.682 120.496 310.797 120.746 310.902C121 311.008 121.303 311.109 121.654 311.207C122.139 311.344 122.557 311.496 122.908 311.664C123.26 311.832 123.549 312.021 123.775 312.232C124.006 312.439 124.176 312.676 124.285 312.941C124.398 313.203 124.455 313.5 124.455 313.832C124.455 314.18 124.385 314.494 124.244 314.775C124.104 315.057 123.902 315.297 123.641 315.496C123.379 315.695 123.064 315.85 122.697 315.959C122.334 316.064 121.928 316.117 121.479 316.117C121.084 316.117 120.695 316.062 120.312 315.953C119.934 315.844 119.588 315.68 119.275 315.461C118.967 315.242 118.719 314.973 118.531 314.652C118.348 314.328 118.256 313.953 118.256 313.527H119.381C119.381 313.82 119.438 314.072 119.551 314.283C119.664 314.49 119.818 314.662 120.014 314.799C120.213 314.936 120.438 315.037 120.688 315.104C120.941 315.166 121.205 315.197 121.479 315.197C121.873 315.197 122.207 315.143 122.48 315.033C122.754 314.924 122.961 314.768 123.102 314.564C123.246 314.361 123.318 314.121 123.318 313.844ZM131.316 315.08V316H126.799V315.08H131.316ZM127.027 307.469V316H125.896V307.469H127.027ZM130.719 311.137V312.057H126.799V311.137H130.719ZM131.258 307.469V308.395H126.799V307.469H131.258ZM132.717 307.469H135.541C136.182 307.469 136.723 307.566 137.164 307.762C137.609 307.957 137.947 308.246 138.178 308.629C138.412 309.008 138.529 309.475 138.529 310.029C138.529 310.42 138.449 310.777 138.289 311.102C138.133 311.422 137.906 311.695 137.609 311.922C137.316 312.145 136.965 312.311 136.555 312.42L136.238 312.543H133.584L133.572 311.623H135.576C135.982 311.623 136.32 311.553 136.59 311.412C136.859 311.268 137.062 311.074 137.199 310.832C137.336 310.59 137.404 310.322 137.404 310.029C137.404 309.701 137.34 309.414 137.211 309.168C137.082 308.922 136.879 308.732 136.602 308.6C136.328 308.463 135.975 308.395 135.541 308.395H133.848V316H132.717V307.469ZM137.703 316L135.629 312.133L136.807 312.127L138.91 315.93V316H137.703ZM146.674 307.469V316H145.537L141.242 309.42V316H140.111V307.469H141.242L145.555 314.066V307.469H146.674ZM151.941 308.225L149.117 316H147.963L151.215 307.469H151.959L151.941 308.225ZM154.309 316L151.479 308.225L151.461 307.469H152.205L155.469 316H154.309ZM154.162 312.842V313.768H149.369V312.842H154.162ZM156.969 307.469H158.064L160.859 314.424L163.648 307.469H164.75L161.281 316H160.426L156.969 307.469ZM156.611 307.469H157.578L157.736 312.672V316H156.611V307.469ZM164.135 307.469H165.102V316H163.977V312.672L164.135 307.469ZM172.508 315.08V316H167.99V315.08H172.508ZM168.219 307.469V316H167.088V307.469H168.219ZM171.91 311.137V312.057H167.99V311.137H171.91ZM172.449 307.469V308.395H167.99V307.469H172.449Z" fill="white"/>
<line x1="65" y1="330.25" x2="249" y2="330.25" stroke="white" stroke-width="1.5"/>
<path d="M114.137 381.654H111.857V380.734H114.137C114.578 380.734 114.936 380.664 115.209 380.523C115.482 380.383 115.682 380.188 115.807 379.938C115.936 379.688 116 379.402 116 379.082C116 378.789 115.936 378.514 115.807 378.256C115.682 377.998 115.482 377.791 115.209 377.635C114.936 377.475 114.578 377.395 114.137 377.395H112.121V385H110.99V376.469H114.137C114.781 376.469 115.326 376.58 115.771 376.803C116.217 377.025 116.555 377.334 116.785 377.729C117.016 378.119 117.131 378.566 117.131 379.07C117.131 379.617 117.016 380.084 116.785 380.471C116.555 380.857 116.217 381.152 115.771 381.355C115.326 381.555 114.781 381.654 114.137 381.654ZM120.91 377.225L118.086 385H116.932L120.184 376.469H120.928L120.91 377.225ZM123.277 385L120.447 377.225L120.43 376.469H121.174L124.438 385H123.277ZM123.131 381.842V382.768H118.338V381.842H123.131ZM130.127 382.844C130.127 382.645 130.096 382.469 130.033 382.316C129.975 382.16 129.869 382.02 129.717 381.895C129.568 381.77 129.361 381.65 129.096 381.537C128.834 381.424 128.502 381.309 128.1 381.191C127.678 381.066 127.297 380.928 126.957 380.775C126.617 380.619 126.326 380.441 126.084 380.242C125.842 380.043 125.656 379.814 125.527 379.557C125.398 379.299 125.334 379.004 125.334 378.672C125.334 378.34 125.402 378.033 125.539 377.752C125.676 377.471 125.871 377.227 126.125 377.02C126.383 376.809 126.689 376.645 127.045 376.527C127.4 376.41 127.797 376.352 128.234 376.352C128.875 376.352 129.418 376.475 129.863 376.721C130.312 376.963 130.654 377.281 130.889 377.676C131.123 378.066 131.24 378.484 131.24 378.93H130.115C130.115 378.609 130.047 378.326 129.91 378.08C129.773 377.83 129.566 377.635 129.289 377.494C129.012 377.35 128.66 377.277 128.234 377.277C127.832 377.277 127.5 377.338 127.238 377.459C126.977 377.58 126.781 377.744 126.652 377.951C126.527 378.158 126.465 378.395 126.465 378.66C126.465 378.84 126.502 379.004 126.576 379.152C126.654 379.297 126.773 379.432 126.934 379.557C127.098 379.682 127.305 379.797 127.555 379.902C127.809 380.008 128.111 380.109 128.463 380.207C128.947 380.344 129.365 380.496 129.717 380.664C130.068 380.832 130.357 381.021 130.584 381.232C130.814 381.439 130.984 381.676 131.094 381.941C131.207 382.203 131.264 382.5 131.264 382.832C131.264 383.18 131.193 383.494 131.053 383.775C130.912 384.057 130.711 384.297 130.449 384.496C130.188 384.695 129.873 384.85 129.506 384.959C129.143 385.064 128.736 385.117 128.287 385.117C127.893 385.117 127.504 385.062 127.121 384.953C126.742 384.844 126.396 384.68 126.084 384.461C125.775 384.242 125.527 383.973 125.34 383.652C125.156 383.328 125.064 382.953 125.064 382.527H126.189C126.189 382.82 126.246 383.072 126.359 383.283C126.473 383.49 126.627 383.662 126.822 383.799C127.021 383.936 127.246 384.037 127.496 384.104C127.75 384.166 128.014 384.197 128.287 384.197C128.682 384.197 129.016 384.143 129.289 384.033C129.562 383.924 129.77 383.768 129.91 383.564C130.055 383.361 130.127 383.121 130.127 382.844ZM137.252 382.844C137.252 382.645 137.221 382.469 137.158 382.316C137.1 382.16 136.994 382.02 136.842 381.895C136.693 381.77 136.486 381.65 136.221 381.537C135.959 381.424 135.627 381.309 135.225 381.191C134.803 381.066 134.422 380.928 134.082 380.775C133.742 380.619 133.451 380.441 133.209 380.242C132.967 380.043 132.781 379.814 132.652 379.557C132.523 379.299 132.459 379.004 132.459 378.672C132.459 378.34 132.527 378.033 132.664 377.752C132.801 377.471 132.996 377.227 133.25 377.02C133.508 376.809 133.814 376.645 134.17 376.527C134.525 376.41 134.922 376.352 135.359 376.352C136 376.352 136.543 376.475 136.988 376.721C137.438 376.963 137.779 377.281 138.014 377.676C138.248 378.066 138.365 378.484 138.365 378.93H137.24C137.24 378.609 137.172 378.326 137.035 378.08C136.898 377.83 136.691 377.635 136.414 377.494C136.137 377.35 135.785 377.277 135.359 377.277C134.957 377.277 134.625 377.338 134.363 377.459C134.102 377.58 133.906 377.744 133.777 377.951C133.652 378.158 133.59 378.395 133.59 378.66C133.59 378.84 133.627 379.004 133.701 379.152C133.779 379.297 133.898 379.432 134.059 379.557C134.223 379.682 134.43 379.797 134.68 379.902C134.934 380.008 135.236 380.109 135.588 380.207C136.072 380.344 136.49 380.496 136.842 380.664C137.193 380.832 137.482 381.021 137.709 381.232C137.939 381.439 138.109 381.676 138.219 381.941C138.332 382.203 138.389 382.5 138.389 382.832C138.389 383.18 138.318 383.494 138.178 383.775C138.037 384.057 137.836 384.297 137.574 384.496C137.312 384.695 136.998 384.85 136.631 384.959C136.268 385.064 135.861 385.117 135.412 385.117C135.018 385.117 134.629 385.062 134.246 384.953C133.867 384.844 133.521 384.68 133.209 384.461C132.9 384.242 132.652 383.973 132.465 383.652C132.281 383.328 132.189 382.953 132.189 382.527H133.314C133.314 382.82 133.371 383.072 133.484 383.283C133.598 383.49 133.752 383.662 133.947 383.799C134.146 383.936 134.371 384.037 134.621 384.104C134.875 384.166 135.139 384.197 135.412 384.197C135.807 384.197 136.141 384.143 136.414 384.033C136.688 383.924 136.895 383.768 137.035 383.564C137.18 383.361 137.252 383.121 137.252 382.844ZM142.074 382.422L143.768 376.469H144.588L144.113 378.783L142.291 385H141.477L142.074 382.422ZM140.322 376.469L141.67 382.305L142.074 385H141.266L139.197 376.469H140.322ZM146.779 382.299L148.098 376.469H149.229L147.166 385H146.357L146.779 382.299ZM144.711 376.469L146.357 382.422L146.955 385H146.141L144.383 378.783L143.902 376.469H144.711ZM157.051 380.465V381.004C157.051 381.645 156.971 382.219 156.811 382.727C156.65 383.234 156.42 383.666 156.119 384.021C155.818 384.377 155.457 384.648 155.035 384.836C154.617 385.023 154.148 385.117 153.629 385.117C153.125 385.117 152.662 385.023 152.24 384.836C151.822 384.648 151.459 384.377 151.15 384.021C150.846 383.666 150.609 383.234 150.441 382.727C150.273 382.219 150.189 381.645 150.189 381.004V380.465C150.189 379.824 150.271 379.252 150.436 378.748C150.604 378.24 150.84 377.809 151.145 377.453C151.449 377.094 151.811 376.82 152.229 376.633C152.65 376.445 153.113 376.352 153.617 376.352C154.137 376.352 154.605 376.445 155.023 376.633C155.445 376.82 155.807 377.094 156.107 377.453C156.412 377.809 156.645 378.24 156.805 378.748C156.969 379.252 157.051 379.824 157.051 380.465ZM155.932 381.004V380.453C155.932 379.945 155.879 379.496 155.773 379.105C155.672 378.715 155.521 378.387 155.322 378.121C155.123 377.855 154.879 377.654 154.59 377.518C154.305 377.381 153.98 377.312 153.617 377.312C153.266 377.312 152.947 377.381 152.662 377.518C152.381 377.654 152.139 377.855 151.936 378.121C151.736 378.387 151.582 378.715 151.473 379.105C151.363 379.496 151.309 379.945 151.309 380.453V381.004C151.309 381.516 151.363 381.969 151.473 382.363C151.582 382.754 151.738 383.084 151.941 383.354C152.148 383.619 152.393 383.82 152.674 383.957C152.959 384.094 153.277 384.162 153.629 384.162C153.996 384.162 154.322 384.094 154.607 383.957C154.893 383.82 155.133 383.619 155.328 383.354C155.527 383.084 155.678 382.754 155.779 382.363C155.881 381.969 155.932 381.516 155.932 381.004ZM158.744 376.469H161.568C162.209 376.469 162.75 376.566 163.191 376.762C163.637 376.957 163.975 377.246 164.205 377.629C164.439 378.008 164.557 378.475 164.557 379.029C164.557 379.42 164.477 379.777 164.316 380.102C164.16 380.422 163.934 380.695 163.637 380.922C163.344 381.145 162.992 381.311 162.582 381.42L162.266 381.543H159.611L159.6 380.623H161.604C162.01 380.623 162.348 380.553 162.617 380.412C162.887 380.268 163.09 380.074 163.227 379.832C163.363 379.59 163.432 379.322 163.432 379.029C163.432 378.701 163.367 378.414 163.238 378.168C163.109 377.922 162.906 377.732 162.629 377.6C162.355 377.463 162.002 377.395 161.568 377.395H159.875V385H158.744V376.469ZM163.73 385L161.656 381.133L162.834 381.127L164.938 384.93V385H163.73ZM168.447 385H166.666L166.678 384.08H168.447C169.057 384.08 169.564 383.953 169.971 383.699C170.377 383.441 170.682 383.082 170.885 382.621C171.092 382.156 171.195 381.613 171.195 380.992V380.471C171.195 379.982 171.137 379.549 171.02 379.17C170.902 378.787 170.73 378.465 170.504 378.203C170.277 377.938 170 377.736 169.672 377.6C169.348 377.463 168.975 377.395 168.553 377.395H166.631V376.469H168.553C169.111 376.469 169.621 376.562 170.082 376.75C170.543 376.934 170.939 377.201 171.271 377.553C171.607 377.9 171.865 378.322 172.045 378.818C172.225 379.311 172.314 379.865 172.314 380.482V380.992C172.314 381.609 172.225 382.166 172.045 382.662C171.865 383.154 171.605 383.574 171.266 383.922C170.93 384.27 170.523 384.537 170.047 384.725C169.574 384.908 169.041 385 168.447 385ZM167.27 376.469V385H166.139V376.469H167.27Z" fill="white"/>
<line x1="65.0051" y1="395.5" x2="250.005" y2="396.75" stroke="white" stroke-width="1.5"/>
<path d="M89.1955 369.573H88.8045V367.078C88.8047 364.278 86.2008 362 83.0001 362C79.7996 362 77.1957 364.278 77.1957 367.078V369.573H76.8045C75.6643 369.573 74.7366 370.384 74.7366 371.382V381.19C74.7366 382.188 75.6643 383 76.8045 383H89.1955C90.3357 383 91.2634 382.188 91.2634 381.19V371.382C91.2634 370.384 90.3358 369.573 89.1955 369.573ZM78.9683 367.078C78.9683 365.133 80.777 363.551 83.0001 363.551C85.2233 363.551 87.032 365.133 87.032 367.078V369.573H78.9683V367.078ZM89.4909 381.191C89.4909 381.331 89.3556 381.449 89.1955 381.449H76.8045C76.6444 381.449 76.5091 381.331 76.5091 381.191V371.382C76.5091 371.242 76.6444 371.124 76.8045 371.124H78.082H87.9183H89.1955C89.3556 371.124 89.4909 371.242 89.4909 371.382V381.191Z" fill="white"/>
<path d="M82.9999 374.026C82.5104 374.026 82.1136 374.373 82.1136 374.802V377.771C82.1136 378.199 82.5104 378.546 82.9999 378.546C83.4893 378.546 83.8862 378.199 83.8862 377.771V374.802C83.8862 374.373 83.4893 374.026 82.9999 374.026Z" fill="white"/>
<path d="M83.75 304.37C86.6827 304.37 89.06 301.993 89.06 299.06C89.06 296.127 86.6827 293.75 83.75 293.75C80.8174 293.75 78.44 296.127 78.44 299.06C78.44 301.993 80.8174 304.37 83.75 304.37Z" fill="white"/>
<path d="M90.0672 305.192C89.9834 305.135 89.815 305.026 89.815 305.026C88.4576 306.91 86.2447 308.139 83.75 308.139C81.2551 308.139 79.0419 306.91 77.6846 305.025C77.6846 305.025 77.5431 305.118 77.4727 305.165C74.473 307.186 72.5 310.614 72.5 314.502V315.682H95V314.502C95 310.631 93.0444 307.216 90.0672 305.192Z" fill="white"/>
<path d="M161.121 408.469V417H159.99V408.469H161.121ZM164.695 412.307V413.232H160.875V412.307H164.695ZM165.275 408.469V409.395H160.875V408.469H165.275ZM166.043 413.9V413.766C166.043 413.309 166.109 412.885 166.242 412.494C166.375 412.1 166.566 411.758 166.816 411.469C167.066 411.176 167.369 410.949 167.725 410.789C168.08 410.625 168.479 410.543 168.92 410.543C169.365 410.543 169.766 410.625 170.121 410.789C170.48 410.949 170.785 411.176 171.035 411.469C171.289 411.758 171.482 412.1 171.615 412.494C171.748 412.885 171.814 413.309 171.814 413.766V413.9C171.814 414.357 171.748 414.781 171.615 415.172C171.482 415.562 171.289 415.904 171.035 416.197C170.785 416.486 170.482 416.713 170.127 416.877C169.775 417.037 169.377 417.117 168.932 417.117C168.486 417.117 168.086 417.037 167.73 416.877C167.375 416.713 167.07 416.486 166.816 416.197C166.566 415.904 166.375 415.562 166.242 415.172C166.109 414.781 166.043 414.357 166.043 413.9ZM167.127 413.766V413.9C167.127 414.217 167.164 414.516 167.238 414.797C167.312 415.074 167.424 415.32 167.572 415.535C167.725 415.75 167.914 415.92 168.141 416.045C168.367 416.166 168.631 416.227 168.932 416.227C169.229 416.227 169.488 416.166 169.711 416.045C169.938 415.92 170.125 415.75 170.273 415.535C170.422 415.32 170.533 415.074 170.607 414.797C170.686 414.516 170.725 414.217 170.725 413.9V413.766C170.725 413.453 170.686 413.158 170.607 412.881C170.533 412.6 170.42 412.352 170.268 412.137C170.119 411.918 169.932 411.746 169.705 411.621C169.482 411.496 169.221 411.434 168.92 411.434C168.623 411.434 168.361 411.496 168.135 411.621C167.912 411.746 167.725 411.918 167.572 412.137C167.424 412.352 167.312 412.6 167.238 412.881C167.164 413.158 167.127 413.453 167.127 413.766ZM174.258 411.656V417H173.174V410.66H174.229L174.258 411.656ZM176.238 410.625L176.232 411.633C176.143 411.613 176.057 411.602 175.975 411.598C175.896 411.59 175.807 411.586 175.705 411.586C175.455 411.586 175.234 411.625 175.043 411.703C174.852 411.781 174.689 411.891 174.557 412.031C174.424 412.172 174.318 412.34 174.24 412.535C174.166 412.727 174.117 412.938 174.094 413.168L173.789 413.344C173.789 412.961 173.826 412.602 173.9 412.266C173.979 411.93 174.098 411.633 174.258 411.375C174.418 411.113 174.621 410.91 174.867 410.766C175.117 410.617 175.414 410.543 175.758 410.543C175.836 410.543 175.926 410.553 176.027 410.572C176.129 410.588 176.199 410.605 176.238 410.625ZM181.23 410.66H182.215V416.865C182.215 417.424 182.102 417.9 181.875 418.295C181.648 418.689 181.332 418.988 180.926 419.191C180.523 419.398 180.059 419.502 179.531 419.502C179.312 419.502 179.055 419.467 178.758 419.396C178.465 419.33 178.176 419.215 177.891 419.051C177.609 418.891 177.373 418.674 177.182 418.4L177.75 417.756C178.016 418.076 178.293 418.299 178.582 418.424C178.875 418.549 179.164 418.611 179.449 418.611C179.793 418.611 180.09 418.547 180.34 418.418C180.59 418.289 180.783 418.098 180.92 417.844C181.061 417.594 181.131 417.285 181.131 416.918V412.055L181.23 410.66ZM176.865 413.9V413.777C176.865 413.293 176.922 412.854 177.035 412.459C177.152 412.061 177.318 411.719 177.533 411.434C177.752 411.148 178.016 410.93 178.324 410.777C178.633 410.621 178.98 410.543 179.367 410.543C179.766 410.543 180.113 410.613 180.41 410.754C180.711 410.891 180.965 411.092 181.172 411.357C181.383 411.619 181.549 411.936 181.67 412.307C181.791 412.678 181.875 413.098 181.922 413.566V414.105C181.879 414.57 181.795 414.988 181.67 415.359C181.549 415.73 181.383 416.047 181.172 416.309C180.965 416.57 180.711 416.771 180.41 416.912C180.109 417.049 179.758 417.117 179.355 417.117C178.977 417.117 178.633 417.037 178.324 416.877C178.02 416.717 177.758 416.492 177.539 416.203C177.32 415.914 177.152 415.574 177.035 415.184C176.922 414.789 176.865 414.361 176.865 413.9ZM177.949 413.777V413.9C177.949 414.217 177.98 414.514 178.043 414.791C178.109 415.068 178.209 415.312 178.342 415.523C178.479 415.734 178.652 415.9 178.863 416.021C179.074 416.139 179.326 416.197 179.619 416.197C179.979 416.197 180.275 416.121 180.51 415.969C180.744 415.816 180.93 415.615 181.066 415.365C181.207 415.115 181.316 414.844 181.395 414.551V413.139C181.352 412.924 181.285 412.717 181.195 412.518C181.109 412.314 180.996 412.135 180.855 411.979C180.719 411.818 180.549 411.691 180.346 411.598C180.143 411.504 179.904 411.457 179.631 411.457C179.334 411.457 179.078 411.52 178.863 411.645C178.652 411.766 178.479 411.934 178.342 412.148C178.209 412.359 178.109 412.605 178.043 412.887C177.98 413.164 177.949 413.461 177.949 413.777ZM186.492 417.117C186.051 417.117 185.65 417.043 185.291 416.895C184.936 416.742 184.629 416.529 184.371 416.256C184.117 415.982 183.922 415.658 183.785 415.283C183.648 414.908 183.58 414.498 183.58 414.053V413.807C183.58 413.291 183.656 412.832 183.809 412.43C183.961 412.023 184.168 411.68 184.43 411.398C184.691 411.117 184.988 410.904 185.32 410.76C185.652 410.615 185.996 410.543 186.352 410.543C186.805 410.543 187.195 410.621 187.523 410.777C187.855 410.934 188.127 411.152 188.338 411.434C188.549 411.711 188.705 412.039 188.807 412.418C188.908 412.793 188.959 413.203 188.959 413.648V414.135H184.225V413.25H187.875V413.168C187.859 412.887 187.801 412.613 187.699 412.348C187.602 412.082 187.445 411.863 187.23 411.691C187.016 411.52 186.723 411.434 186.352 411.434C186.105 411.434 185.879 411.486 185.672 411.592C185.465 411.693 185.287 411.846 185.139 412.049C184.99 412.252 184.875 412.5 184.793 412.793C184.711 413.086 184.67 413.424 184.67 413.807V414.053C184.67 414.354 184.711 414.637 184.793 414.902C184.879 415.164 185.002 415.395 185.162 415.594C185.326 415.793 185.523 415.949 185.754 416.062C185.988 416.176 186.254 416.232 186.551 416.232C186.934 416.232 187.258 416.154 187.523 415.998C187.789 415.842 188.021 415.633 188.221 415.371L188.877 415.893C188.74 416.1 188.566 416.297 188.355 416.484C188.145 416.672 187.885 416.824 187.576 416.941C187.271 417.059 186.91 417.117 186.492 417.117ZM192.879 410.66V411.492H189.451V410.66H192.879ZM190.611 409.119H191.695V415.43C191.695 415.645 191.729 415.807 191.795 415.916C191.861 416.025 191.947 416.098 192.053 416.133C192.158 416.168 192.271 416.186 192.393 416.186C192.482 416.186 192.576 416.178 192.674 416.162C192.775 416.143 192.852 416.127 192.902 416.115L192.908 417C192.822 417.027 192.709 417.053 192.568 417.076C192.432 417.104 192.266 417.117 192.07 417.117C191.805 417.117 191.561 417.064 191.338 416.959C191.115 416.854 190.938 416.678 190.805 416.432C190.676 416.182 190.611 415.846 190.611 415.424V409.119ZM200.438 413.654H198.158V412.734H200.438C200.879 412.734 201.236 412.664 201.51 412.523C201.783 412.383 201.982 412.188 202.107 411.938C202.236 411.688 202.301 411.402 202.301 411.082C202.301 410.789 202.236 410.514 202.107 410.256C201.982 409.998 201.783 409.791 201.51 409.635C201.236 409.475 200.879 409.395 200.438 409.395H198.422V417H197.291V408.469H200.438C201.082 408.469 201.627 408.58 202.072 408.803C202.518 409.025 202.855 409.334 203.086 409.729C203.316 410.119 203.432 410.566 203.432 411.07C203.432 411.617 203.316 412.084 203.086 412.471C202.855 412.857 202.518 413.152 202.072 413.355C201.627 413.555 201.082 413.654 200.438 413.654ZM208.365 415.916V412.652C208.365 412.402 208.314 412.186 208.213 412.002C208.115 411.814 207.967 411.67 207.768 411.568C207.568 411.467 207.322 411.416 207.029 411.416C206.756 411.416 206.516 411.463 206.309 411.557C206.105 411.65 205.945 411.773 205.828 411.926C205.715 412.078 205.658 412.242 205.658 412.418H204.574C204.574 412.191 204.633 411.967 204.75 411.744C204.867 411.521 205.035 411.32 205.254 411.141C205.477 410.957 205.742 410.812 206.051 410.707C206.363 410.598 206.711 410.543 207.094 410.543C207.555 410.543 207.961 410.621 208.312 410.777C208.668 410.934 208.945 411.17 209.145 411.486C209.348 411.799 209.449 412.191 209.449 412.664V415.617C209.449 415.828 209.467 416.053 209.502 416.291C209.541 416.529 209.598 416.734 209.672 416.906V417H208.541C208.486 416.875 208.443 416.709 208.412 416.502C208.381 416.291 208.365 416.096 208.365 415.916ZM208.553 413.156L208.564 413.918H207.469C207.16 413.918 206.885 413.943 206.643 413.994C206.4 414.041 206.197 414.113 206.033 414.211C205.869 414.309 205.744 414.432 205.658 414.58C205.572 414.725 205.529 414.895 205.529 415.09C205.529 415.289 205.574 415.471 205.664 415.635C205.754 415.799 205.889 415.93 206.068 416.027C206.252 416.121 206.477 416.168 206.742 416.168C207.074 416.168 207.367 416.098 207.621 415.957C207.875 415.816 208.076 415.645 208.225 415.441C208.377 415.238 208.459 415.041 208.471 414.85L208.934 415.371C208.906 415.535 208.832 415.717 208.711 415.916C208.59 416.115 208.428 416.307 208.225 416.49C208.025 416.67 207.787 416.82 207.51 416.941C207.236 417.059 206.928 417.117 206.584 417.117C206.154 417.117 205.777 417.033 205.453 416.865C205.133 416.697 204.883 416.473 204.703 416.191C204.527 415.906 204.439 415.588 204.439 415.236C204.439 414.896 204.506 414.598 204.639 414.34C204.771 414.078 204.963 413.861 205.213 413.689C205.463 413.514 205.764 413.381 206.115 413.291C206.467 413.201 206.859 413.156 207.293 413.156H208.553ZM214.846 415.318C214.846 415.162 214.811 415.018 214.74 414.885C214.674 414.748 214.535 414.625 214.324 414.516C214.117 414.402 213.805 414.305 213.387 414.223C213.035 414.148 212.717 414.061 212.432 413.959C212.15 413.857 211.91 413.734 211.711 413.59C211.516 413.445 211.365 413.275 211.26 413.08C211.154 412.885 211.102 412.656 211.102 412.395C211.102 412.145 211.156 411.908 211.266 411.686C211.379 411.463 211.537 411.266 211.74 411.094C211.947 410.922 212.195 410.787 212.484 410.689C212.773 410.592 213.096 410.543 213.451 410.543C213.959 410.543 214.393 410.633 214.752 410.812C215.111 410.992 215.387 411.232 215.578 411.533C215.77 411.83 215.865 412.16 215.865 412.523H214.781C214.781 412.348 214.729 412.178 214.623 412.014C214.521 411.846 214.371 411.707 214.172 411.598C213.977 411.488 213.736 411.434 213.451 411.434C213.15 411.434 212.906 411.48 212.719 411.574C212.535 411.664 212.4 411.779 212.314 411.92C212.232 412.061 212.191 412.209 212.191 412.365C212.191 412.482 212.211 412.588 212.25 412.682C212.293 412.771 212.367 412.855 212.473 412.934C212.578 413.008 212.727 413.078 212.918 413.145C213.109 413.211 213.354 413.277 213.65 413.344C214.17 413.461 214.598 413.602 214.934 413.766C215.27 413.93 215.52 414.131 215.684 414.369C215.848 414.607 215.93 414.896 215.93 415.236C215.93 415.514 215.871 415.768 215.754 415.998C215.641 416.229 215.475 416.428 215.256 416.596C215.041 416.76 214.783 416.889 214.482 416.982C214.186 417.072 213.852 417.117 213.48 417.117C212.922 417.117 212.449 417.018 212.062 416.818C211.676 416.619 211.383 416.361 211.184 416.045C210.984 415.729 210.885 415.395 210.885 415.043H211.975C211.99 415.34 212.076 415.576 212.232 415.752C212.389 415.924 212.58 416.047 212.807 416.121C213.033 416.191 213.258 416.227 213.48 416.227C213.777 416.227 214.025 416.188 214.225 416.109C214.428 416.031 214.582 415.924 214.688 415.787C214.793 415.65 214.846 415.494 214.846 415.318ZM221.045 415.318C221.045 415.162 221.01 415.018 220.939 414.885C220.873 414.748 220.734 414.625 220.523 414.516C220.316 414.402 220.004 414.305 219.586 414.223C219.234 414.148 218.916 414.061 218.631 413.959C218.35 413.857 218.109 413.734 217.91 413.59C217.715 413.445 217.564 413.275 217.459 413.08C217.354 412.885 217.301 412.656 217.301 412.395C217.301 412.145 217.355 411.908 217.465 411.686C217.578 411.463 217.736 411.266 217.939 411.094C218.146 410.922 218.395 410.787 218.684 410.689C218.973 410.592 219.295 410.543 219.65 410.543C220.158 410.543 220.592 410.633 220.951 410.812C221.311 410.992 221.586 411.232 221.777 411.533C221.969 411.83 222.064 412.16 222.064 412.523H220.98C220.98 412.348 220.928 412.178 220.822 412.014C220.721 411.846 220.57 411.707 220.371 411.598C220.176 411.488 219.936 411.434 219.65 411.434C219.35 411.434 219.105 411.48 218.918 411.574C218.734 411.664 218.6 411.779 218.514 411.92C218.432 412.061 218.391 412.209 218.391 412.365C218.391 412.482 218.41 412.588 218.449 412.682C218.492 412.771 218.566 412.855 218.672 412.934C218.777 413.008 218.926 413.078 219.117 413.145C219.309 413.211 219.553 413.277 219.85 413.344C220.369 413.461 220.797 413.602 221.133 413.766C221.469 413.93 221.719 414.131 221.883 414.369C222.047 414.607 222.129 414.896 222.129 415.236C222.129 415.514 222.07 415.768 221.953 415.998C221.84 416.229 221.674 416.428 221.455 416.596C221.24 416.76 220.982 416.889 220.682 416.982C220.385 417.072 220.051 417.117 219.68 417.117C219.121 417.117 218.648 417.018 218.262 416.818C217.875 416.619 217.582 416.361 217.383 416.045C217.184 415.729 217.084 415.395 217.084 415.043H218.174C218.189 415.34 218.275 415.576 218.432 415.752C218.588 415.924 218.779 416.047 219.006 416.121C219.232 416.191 219.457 416.227 219.68 416.227C219.977 416.227 220.225 416.188 220.424 416.109C220.627 416.031 220.781 415.924 220.887 415.787C220.992 415.65 221.045 415.494 221.045 415.318ZM225.158 415.875L226.787 410.66H227.502L227.361 411.697L225.703 417H225.006L225.158 415.875ZM224.062 410.66L225.451 415.934L225.551 417H224.818L222.979 410.66H224.062ZM229.061 415.893L230.385 410.66H231.463L229.623 417H228.896L229.061 415.893ZM227.66 410.66L229.254 415.787L229.436 417H228.744L227.039 411.686L226.898 410.66H227.66ZM232.289 413.9V413.766C232.289 413.309 232.355 412.885 232.488 412.494C232.621 412.1 232.812 411.758 233.062 411.469C233.312 411.176 233.615 410.949 233.971 410.789C234.326 410.625 234.725 410.543 235.166 410.543C235.611 410.543 236.012 410.625 236.367 410.789C236.727 410.949 237.031 411.176 237.281 411.469C237.535 411.758 237.729 412.1 237.861 412.494C237.994 412.885 238.061 413.309 238.061 413.766V413.9C238.061 414.357 237.994 414.781 237.861 415.172C237.729 415.562 237.535 415.904 237.281 416.197C237.031 416.486 236.729 416.713 236.373 416.877C236.021 417.037 235.623 417.117 235.178 417.117C234.732 417.117 234.332 417.037 233.977 416.877C233.621 416.713 233.316 416.486 233.062 416.197C232.812 415.904 232.621 415.562 232.488 415.172C232.355 414.781 232.289 414.357 232.289 413.9ZM233.373 413.766V413.9C233.373 414.217 233.41 414.516 233.484 414.797C233.559 415.074 233.67 415.32 233.818 415.535C233.971 415.75 234.16 415.92 234.387 416.045C234.613 416.166 234.877 416.227 235.178 416.227C235.475 416.227 235.734 416.166 235.957 416.045C236.184 415.92 236.371 415.75 236.52 415.535C236.668 415.32 236.779 415.074 236.854 414.797C236.932 414.516 236.971 414.217 236.971 413.9V413.766C236.971 413.453 236.932 413.158 236.854 412.881C236.779 412.6 236.666 412.352 236.514 412.137C236.365 411.918 236.178 411.746 235.951 411.621C235.729 411.496 235.467 411.434 235.166 411.434C234.869 411.434 234.607 411.496 234.381 411.621C234.158 411.746 233.971 411.918 233.818 412.137C233.67 412.352 233.559 412.6 233.484 412.881C233.41 413.158 233.373 413.453 233.373 413.766ZM240.504 411.656V417H239.42V410.66H240.475L240.504 411.656ZM242.484 410.625L242.479 411.633C242.389 411.613 242.303 411.602 242.221 411.598C242.143 411.59 242.053 411.586 241.951 411.586C241.701 411.586 241.48 411.625 241.289 411.703C241.098 411.781 240.936 411.891 240.803 412.031C240.67 412.172 240.564 412.34 240.486 412.535C240.412 412.727 240.363 412.938 240.34 413.168L240.035 413.344C240.035 412.961 240.072 412.602 240.146 412.266C240.225 411.93 240.344 411.633 240.504 411.375C240.664 411.113 240.867 410.91 241.113 410.766C241.363 410.617 241.66 410.543 242.004 410.543C242.082 410.543 242.172 410.553 242.273 410.572C242.375 410.588 242.445 410.605 242.484 410.625ZM247.365 415.77V408H248.455V417H247.459L247.365 415.77ZM243.1 413.9V413.777C243.1 413.293 243.158 412.854 243.275 412.459C243.396 412.061 243.566 411.719 243.785 411.434C244.008 411.148 244.271 410.93 244.576 410.777C244.885 410.621 245.229 410.543 245.607 410.543C246.006 410.543 246.354 410.613 246.65 410.754C246.951 410.891 247.205 411.092 247.412 411.357C247.623 411.619 247.789 411.936 247.91 412.307C248.031 412.678 248.115 413.098 248.162 413.566V414.105C248.119 414.57 248.035 414.988 247.91 415.359C247.789 415.73 247.623 416.047 247.412 416.309C247.205 416.57 246.951 416.771 246.65 416.912C246.35 417.049 245.998 417.117 245.596 417.117C245.225 417.117 244.885 417.037 244.576 416.877C244.271 416.717 244.008 416.492 243.785 416.203C243.566 415.914 243.396 415.574 243.275 415.184C243.158 414.789 243.1 414.361 243.1 413.9ZM244.189 413.777V413.9C244.189 414.217 244.221 414.514 244.283 414.791C244.35 415.068 244.451 415.312 244.588 415.523C244.725 415.734 244.898 415.9 245.109 416.021C245.32 416.139 245.572 416.197 245.865 416.197C246.225 416.197 246.52 416.121 246.75 415.969C246.984 415.816 247.172 415.615 247.312 415.365C247.453 415.115 247.562 414.844 247.641 414.551V413.139C247.594 412.924 247.525 412.717 247.436 412.518C247.35 412.314 247.236 412.135 247.096 411.979C246.959 411.818 246.789 411.691 246.586 411.598C246.387 411.504 246.15 411.457 245.877 411.457C245.58 411.457 245.324 411.52 245.109 411.645C244.898 411.766 244.725 411.934 244.588 412.148C244.451 412.359 244.35 412.605 244.283 412.887C244.221 413.164 244.189 413.461 244.189 413.777Z" fill="white"/>
<rect x="78" y="463" width="158" height="52" fill="white"/>
<path d="M130.842 495.083V497H121.955V495.083H130.842ZM122.419 479.227V497H120.063V479.227H122.419ZM146.418 487.552V488.675C146.418 490.009 146.251 491.206 145.917 492.264C145.584 493.322 145.104 494.221 144.477 494.961C143.85 495.702 143.098 496.268 142.219 496.658C141.348 497.049 140.371 497.244 139.289 497.244C138.239 497.244 137.275 497.049 136.396 496.658C135.525 496.268 134.768 495.702 134.125 494.961C133.491 494.221 132.998 493.322 132.648 492.264C132.299 491.206 132.124 490.009 132.124 488.675V487.552C132.124 486.217 132.294 485.025 132.636 483.975C132.986 482.917 133.479 482.018 134.113 481.277C134.748 480.529 135.501 479.959 136.372 479.568C137.25 479.178 138.215 478.982 139.265 478.982C140.347 478.982 141.324 479.178 142.194 479.568C143.073 479.959 143.826 480.529 144.453 481.277C145.087 482.018 145.572 482.917 145.905 483.975C146.247 485.025 146.418 486.217 146.418 487.552ZM144.086 488.675V487.527C144.086 486.469 143.977 485.534 143.757 484.72C143.545 483.906 143.232 483.222 142.817 482.669C142.402 482.116 141.893 481.696 141.291 481.412C140.697 481.127 140.021 480.984 139.265 480.984C138.532 480.984 137.869 481.127 137.275 481.412C136.689 481.696 136.184 482.116 135.761 482.669C135.346 483.222 135.025 483.906 134.797 484.72C134.569 485.534 134.455 486.469 134.455 487.527V488.675C134.455 489.741 134.569 490.685 134.797 491.507C135.025 492.321 135.35 493.008 135.773 493.57C136.205 494.123 136.713 494.542 137.299 494.827C137.893 495.112 138.557 495.254 139.289 495.254C140.054 495.254 140.734 495.112 141.328 494.827C141.922 494.542 142.422 494.123 142.829 493.57C143.244 493.008 143.557 492.321 143.769 491.507C143.981 490.685 144.086 489.741 144.086 488.675ZM163.081 488.15V494.656C162.861 494.982 162.511 495.348 162.031 495.755C161.551 496.154 160.887 496.504 160.041 496.805C159.203 497.098 158.12 497.244 156.794 497.244C155.712 497.244 154.715 497.057 153.803 496.683C152.9 496.3 152.115 495.747 151.447 495.022C150.788 494.29 150.275 493.403 149.909 492.361C149.551 491.312 149.372 490.123 149.372 488.797V487.417C149.372 486.091 149.527 484.907 149.836 483.865C150.153 482.824 150.617 481.941 151.228 481.216C151.838 480.484 152.587 479.931 153.474 479.556C154.361 479.174 155.378 478.982 156.525 478.982C157.884 478.982 159.02 479.218 159.931 479.69C160.851 480.154 161.567 480.797 162.08 481.619C162.6 482.441 162.934 483.377 163.081 484.427H160.725C160.619 483.784 160.407 483.198 160.09 482.669C159.781 482.14 159.337 481.717 158.759 481.399C158.181 481.074 157.437 480.911 156.525 480.911C155.703 480.911 154.991 481.062 154.389 481.363C153.787 481.664 153.291 482.095 152.9 482.657C152.509 483.218 152.216 483.898 152.021 484.695C151.834 485.493 151.74 486.392 151.74 487.393V488.797C151.74 489.822 151.858 490.738 152.094 491.543C152.338 492.349 152.684 493.037 153.132 493.606C153.579 494.168 154.112 494.595 154.731 494.888C155.358 495.181 156.049 495.328 156.806 495.328C157.644 495.328 158.324 495.258 158.845 495.12C159.366 494.974 159.772 494.803 160.065 494.607C160.358 494.404 160.582 494.213 160.737 494.034V490.054H156.623V488.15H163.081ZM169.514 479.227V497H167.158V479.227H169.514ZM187.47 479.227V497H185.102L176.154 483.292V497H173.798V479.227H176.154L185.139 492.972V479.227H187.47Z" fill="#00CDCD"/>
<defs>
<linearGradient id="paint0_linear_75_2" x1="158.211" y1="286.307" x2="542.672" y2="225.01" gradientUnits="userSpaceOnUse">
<stop stop-color="#F7F7F7"/>
<stop offset="0.807292" stop-color="#F4F4F4"/>
</linearGradient>
</defs>
</svg>
